<svg width="133" height="40" viewBox="0 0 133 40" fill="none" xmlns="http://www.w3.org/2000/svg">
<path d="M132.974 33.7223C132.974 36.6239 130.349 39 127.086 39H5.88787C2.62533 39 0 36.6239 0 33.7223V5.27768C0 2.35325 2.62533 0 5.88787 0H127.112C130.349 0 133 2.35325 133 5.27768V33.7223H132.974Z" fill="#B3B3B3"/>
<path d="M32.4953 24.7969C31.8495 26.1989 31.5497 26.8424 30.7424 28.0835C29.5892 29.8301 27.9747 31.9906 25.9911 31.9906C24.2151 32.0136 23.7539 30.8414 21.3551 30.8414C18.9564 30.8644 18.449 31.9906 16.673 31.9906C14.6664 31.9676 13.121 30.037 11.9909 28.2903C8.78487 23.441 8.46197 17.7412 10.4225 14.7075C11.8294 12.5472 14.0437 11.306 16.1195 11.306C18.2413 11.306 19.5791 12.4552 21.332 12.4552C23.0388 12.4552 24.0767 11.306 26.5216 11.306C28.3667 11.306 30.3273 12.3173 31.7342 14.041C27.1443 16.5462 27.8824 23.0503 32.4953 24.7969Z" fill="white"/>
<path d="M24.6535 9.35265C25.5531 8.20348 26.222 6.61767 25.9682 4.96292C24.5152 5.05485 22.8084 5.97416 21.8165 7.19224C20.9171 8.27247 20.179 9.90422 20.4557 11.467C22.0472 11.513 23.6848 10.5707 24.6535 9.35265Z" fill="white"/>
<path d="M47.4254 13.2334C47.3176 14.1556 46.9763 14.8682 46.4014 15.3712C45.8305 15.8703 45.07 16.1198 44.1199 16.1198C43.0899 16.1198 42.2636 15.7505 41.6408 15.0119C41.022 14.2734 40.7126 13.2853 40.7126 12.0478V11.2094C40.7126 10.399 40.8563 9.6864 41.1438 9.07161C41.4352 8.45681 41.8464 7.98574 42.3773 7.65838C42.9083 7.32703 43.5231 7.16136 44.2217 7.16136C45.1479 7.16136 45.8904 7.42085 46.4493 7.93983C47.0082 8.45482 47.3336 9.16942 47.4254 10.0836H46.2697C46.1699 9.38898 45.9523 8.88597 45.617 8.57458C45.2856 8.26319 44.8205 8.1075 44.2217 8.1075C43.4872 8.1075 42.9103 8.37897 42.4911 8.9219C42.0759 9.46483 41.8683 10.2373 41.8683 11.2393V12.0837C41.8683 13.0298 42.0659 13.7824 42.4612 14.3413C42.8564 14.9002 43.4093 15.1796 44.1199 15.1796C44.7587 15.1796 45.2477 15.0359 45.587 14.7485C45.9304 14.457 46.1579 13.952 46.2697 13.2334H47.4254ZM48.5332 12.7005C48.5332 12.0657 48.657 11.4948 48.9045 10.9878C49.156 10.4808 49.5033 10.0896 49.9465 9.81415C50.3936 9.53869 50.9026 9.40096 51.4735 9.40096C52.3557 9.40096 53.0683 9.70636 53.6113 10.3172C54.1582 10.928 54.4317 11.7404 54.4317 12.7544V12.8322C54.4317 13.463 54.3099 14.0299 54.0664 14.5329C53.8268 15.0319 53.4815 15.4211 53.0304 15.7006C52.5833 15.98 52.0683 16.1198 51.4854 16.1198C50.6072 16.1198 49.8946 15.8144 49.3476 15.2036C48.8047 14.5928 48.5332 13.7844 48.5332 12.7783V12.7005ZM49.6471 12.8322C49.6471 13.5508 49.8127 14.1277 50.1441 14.5628C50.4794 14.998 50.9265 15.2155 51.4854 15.2155C52.0483 15.2155 52.4955 14.996 52.8268 14.5568C53.1582 14.1137 53.3238 13.4949 53.3238 12.7005C53.3238 11.9899 53.1542 11.415 52.8148 10.9759C52.4795 10.5327 52.0324 10.3112 51.4735 10.3112C50.9265 10.3112 50.4854 10.5287 50.1501 10.9639C49.8147 11.399 49.6471 12.0218 49.6471 12.8322ZM56.8629 9.52073L56.8928 10.2393C57.3679 9.68041 58.0086 9.40096 58.815 9.40096C59.7213 9.40096 60.3381 9.74828 60.6654 10.4429C60.881 10.1315 61.1604 9.88002 61.5038 9.6884C61.8511 9.49677 62.2603 9.40096 62.7314 9.40096C64.1526 9.40096 64.8751 10.1535 64.8991 11.6585V16H63.7913V11.7244C63.7913 11.2613 63.6855 10.916 63.4739 10.6884C63.2623 10.4569 62.907 10.3411 62.408 10.3411C61.9968 10.3411 61.6555 10.4649 61.384 10.7124C61.1125 10.9559 60.9548 11.2853 60.9109 11.7004V16H59.7971V11.7543C59.7971 10.8122 59.336 10.3411 58.4138 10.3411C57.6873 10.3411 57.1902 10.6505 56.9228 11.2693V16H55.8149V9.52073H56.8629ZM67.7794 16H66.6716V9.52073H67.7794V16ZM66.5818 7.8021C66.5818 7.62245 66.6357 7.47075 66.7435 7.34699C66.8553 7.22324 67.0189 7.16136 67.2345 7.16136C67.4501 7.16136 67.6138 7.22324 67.7255 7.34699C67.8373 7.47075 67.8932 7.62245 67.8932 7.8021C67.8932 7.98175 67.8373 8.13145 67.7255 8.25122C67.6138 8.37098 67.4501 8.43087 67.2345 8.43087C67.0189 8.43087 66.8553 8.37098 66.7435 8.25122C66.6357 8.13145 66.5818 7.98175 66.5818 7.8021ZM70.6059 9.52073L70.6418 10.3351C71.1368 9.71235 71.7836 9.40096 72.582 9.40096C73.9513 9.40096 74.642 10.1734 74.6539 11.7184V16H73.5461V11.7124C73.5421 11.2453 73.4343 10.9 73.2228 10.6765C73.0152 10.4529 72.6898 10.3411 72.2467 10.3411C71.8874 10.3411 71.572 10.4369 71.3005 10.6285C71.0291 10.8202 70.8175 11.0717 70.6658 11.3831V16H69.558V9.52073H70.6059ZM76.0612 12.7065C76.0612 11.6965 76.2947 10.894 76.7618 10.2992C77.2289 9.70037 77.8477 9.40096 78.6182 9.40096C79.4086 9.40096 80.0254 9.68041 80.4685 10.2393L80.5224 9.52073H81.5344V15.8443C81.5344 16.6827 81.2849 17.3434 80.7859 17.8264C80.2909 18.3095 79.6242 18.551 78.7858 18.551C78.3187 18.551 77.8616 18.4512 77.4145 18.2516C76.9674 18.052 76.6261 17.7785 76.3905 17.4312L76.9654 16.7665C77.4405 17.3533 78.0213 17.6468 78.708 17.6468C79.2469 17.6468 79.6661 17.4951 79.9655 17.1917C80.2689 16.8883 80.4206 16.4611 80.4206 15.9102V15.3533C79.9775 15.8643 79.3727 16.1198 78.6062 16.1198C77.8477 16.1198 77.2329 15.8144 76.7618 15.2036C76.2947 14.5928 76.0612 13.7604 76.0612 12.7065ZM77.175 12.8322C77.175 13.5628 77.3247 14.1377 77.6241 14.5568C77.9235 14.972 78.3427 15.1796 78.8816 15.1796C79.5803 15.1796 80.0933 14.8622 80.4206 14.2275V11.2693C80.0813 10.6505 79.5723 10.3411 78.8936 10.3411C78.3547 10.3411 77.9335 10.5507 77.6301 10.9699C77.3267 11.3891 77.175 12.0098 77.175 12.8322ZM90.0258 14.2814C90.0258 13.982 89.912 13.7504 89.6844 13.5867C89.4609 13.4191 89.0676 13.2754 88.5047 13.1556C87.9458 13.0358 87.5007 12.8921 87.1694 12.7244C86.842 12.5568 86.5985 12.3572 86.4388 12.1256C86.2831 11.8941 86.2053 11.6186 86.2053 11.2992C86.2053 10.7683 86.4288 10.3192 86.8759 9.95188C87.3271 9.5846 87.9019 9.40096 88.6005 9.40096C89.3351 9.40096 89.9299 9.59059 90.385 9.96984C90.8441 10.3491 91.0737 10.8341 91.0737 11.425H89.9599C89.9599 11.1216 89.8301 10.8601 89.5706 10.6405C89.3151 10.421 88.9918 10.3112 88.6005 10.3112C88.1973 10.3112 87.882 10.399 87.6544 10.5747C87.4269 10.7503 87.3131 10.9799 87.3131 11.2633C87.3131 11.5308 87.4189 11.7324 87.6305 11.8681C87.842 12.0038 88.2233 12.1336 88.7742 12.2574C89.3291 12.3811 89.7782 12.5288 90.1216 12.7005C90.4649 12.8721 90.7184 13.0797 90.8821 13.3233C91.0497 13.5628 91.1336 13.8562 91.1336 14.2035C91.1336 14.7824 90.902 15.2475 90.4389 15.5988C89.9758 15.9461 89.375 16.1198 88.6365 16.1198C88.1175 16.1198 87.6584 16.0279 87.2592 15.8443C86.86 15.6607 86.5466 15.4052 86.319 15.0778C86.0955 14.7465 85.9837 14.3892 85.9837 14.0059H87.0915C87.1115 14.3772 87.2592 14.6726 87.5346 14.8922C87.8141 15.1078 88.1814 15.2155 88.6365 15.2155C89.0557 15.2155 89.391 15.1317 89.6425 14.964C89.898 14.7924 90.0258 14.5648 90.0258 14.2814ZM92.2833 12.7005C92.2833 12.0657 92.4071 11.4948 92.6546 10.9878C92.9061 10.4808 93.2534 10.0896 93.6965 9.81415C94.1437 9.53869 94.6527 9.40096 95.2235 9.40096C96.1058 9.40096 96.8184 9.70636 97.3613 10.3172C97.9083 10.928 98.1817 11.7404 98.1817 12.7544V12.8322C98.1817 13.463 98.06 14.0299 97.8165 14.5329C97.5769 15.0319 97.2316 15.4211 96.7805 15.7006C96.3334 15.98 95.8184 16.1198 95.2355 16.1198C94.3572 16.1198 93.6446 15.8144 93.0977 15.2036C92.5548 14.5928 92.2833 13.7844 92.2833 12.7783V12.7005ZM93.3971 12.8322C93.3971 13.5508 93.5628 14.1277 93.8942 14.5628C94.2295 14.998 94.6766 15.2155 95.2355 15.2155C95.7984 15.2155 96.2455 14.996 96.5769 14.5568C96.9082 14.1137 97.0739 13.4949 97.0739 12.7005C97.0739 11.9899 96.9042 11.415 96.5649 10.9759C96.2296 10.5327 95.7824 10.3112 95.2235 10.3112C94.6766 10.3112 94.2355 10.5287 93.9001 10.9639C93.5648 11.399 93.3971 12.0218 93.3971 12.8322ZM99.2776 12.7005C99.2776 12.0657 99.4013 11.4948 99.6489 10.9878C99.9004 10.4808 100.248 10.0896 100.691 9.81415C101.138 9.53869 101.647 9.40096 102.218 9.40096C103.1 9.40096 103.813 9.70636 104.356 10.3172C104.903 10.928 105.176 11.7404 105.176 12.7544V12.8322C105.176 13.463 105.054 14.0299 104.811 14.5329C104.571 15.0319 104.226 15.4211 103.775 15.7006C103.328 15.98 102.813 16.1198 102.23 16.1198C101.352 16.1198 100.639 15.8144 100.092 15.2036C99.549 14.5928 99.2776 13.7844 99.2776 12.7783V12.7005ZM100.391 12.8322C100.391 13.5508 100.557 14.1277 100.888 14.5628C101.224 14.998 101.671 15.2155 102.23 15.2155C102.793 15.2155 103.24 14.996 103.571 14.5568C103.902 14.1137 104.068 13.4949 104.068 12.7005C104.068 11.9899 103.899 11.415 103.559 10.9759C103.224 10.5327 102.777 10.3112 102.218 10.3112C101.671 10.3112 101.23 10.5287 100.894 10.9639C100.559 11.399 100.391 12.0218 100.391 12.8322ZM107.613 9.52073L107.649 10.3351C108.144 9.71235 108.791 9.40096 109.589 9.40096C110.959 9.40096 111.649 10.1734 111.661 11.7184V16H110.553V11.7124C110.549 11.2453 110.442 10.9 110.23 10.6765C110.022 10.4529 109.697 10.3411 109.254 10.3411C108.895 10.3411 108.579 10.4369 108.308 10.6285C108.036 10.8202 107.825 11.0717 107.673 11.3831V16H106.565V9.52073H107.613Z" fill="white"/>
<path d="M42.9069 22.969L39.917 31.7273H41.2842L42.1707 29.0324H45.0555L45.9721 31.7273H47.3844L44.3794 22.969H42.9069ZM43.6131 24.4062C43.7183 24.7955 43.8234 25.1997 43.9587 25.6489L44.77 27.9695H42.4863L43.2826 25.6339C43.4028 25.2446 43.508 24.8404 43.6131 24.4062Z" fill="white"/>
<path d="M52.058 25.2446C51.1565 25.2446 50.4203 25.589 49.9394 26.2627L49.8793 25.3943H48.6624V25.4992C48.6924 26.0381 48.7074 26.637 48.7074 27.4904V34.2426H50.0446V31.0986C50.4503 31.5926 51.1114 31.8771 51.8627 31.8771C52.644 31.8771 53.3502 31.5776 53.876 31.0237C54.462 30.4099 54.7625 29.5265 54.7625 28.4785C54.7625 27.5503 54.4921 26.7418 53.9962 26.1579C53.5154 25.559 52.8243 25.2446 52.058 25.2446ZM51.7274 26.3375C52.9144 26.3375 53.4403 27.4305 53.4403 28.5234C53.4403 29.9158 52.7642 30.7842 51.6673 30.7842C50.9161 30.7842 50.2851 30.2751 50.1047 29.5565C50.0747 29.4367 50.0597 29.3019 50.0597 29.1223V28.0593C50.0597 27.9695 50.0747 27.8497 50.1047 27.7299C50.1047 27.7 50.1198 27.6551 50.1198 27.6251C50.3151 26.8616 50.9762 26.3375 51.7274 26.3375Z" fill="white"/>
<path d="M59.7066 25.2446C58.8051 25.2446 58.0688 25.589 57.5881 26.2627L57.528 25.3943H56.3259V25.4992C56.356 26.0381 56.371 26.637 56.371 27.4904V34.2426H57.7082V31.0986C58.1139 31.5926 58.775 31.8771 59.5263 31.8771C60.3076 31.8771 61.0137 31.5776 61.5397 31.0237C62.1256 30.4099 62.4261 29.5265 62.4261 28.4785C62.4261 27.5503 62.1557 26.7418 61.6598 26.1579C61.164 25.559 60.4728 25.2446 59.7066 25.2446ZM59.376 26.3375C60.563 26.3375 61.0889 27.4305 61.0889 28.5234C61.0889 29.9158 60.4127 30.7842 59.3159 30.7842C58.5797 30.7842 57.9336 30.2751 57.7533 29.5565C57.7233 29.4367 57.7082 29.3019 57.7082 29.1223V28.0593C57.7082 27.9695 57.7233 27.8497 57.7533 27.7299C57.7533 27.7 57.7683 27.6551 57.7683 27.6251C57.9637 26.8616 58.6247 26.3375 59.376 26.3375Z" fill="white"/>
<path d="M69.4817 26.6819C68.2346 26.2028 67.844 25.8285 67.844 25.1248C67.844 24.541 68.3097 23.9421 69.3615 23.9421C70.2179 23.9421 70.7738 24.2416 70.9241 24.3314L71.0443 24.4062L71.4199 23.2983L71.3448 23.2534C71.1195 23.1186 70.4884 22.8192 69.4066 22.8192C67.7088 22.8192 66.5218 23.8223 66.5218 25.2447C66.5218 26.3974 67.258 27.2059 68.8507 27.7748C69.9775 28.1941 70.3983 28.6282 70.3983 29.3618C70.3983 30.2003 69.7522 30.7093 68.7004 30.7093C68.0243 30.7093 67.3181 30.5147 66.7772 30.1703L66.657 30.0954L66.2964 31.2333L66.3565 31.2782C66.8523 31.6076 67.7989 31.8471 68.6103 31.8471C70.8941 31.8471 71.7054 30.4548 71.7054 29.272C71.7204 28.0593 71.0744 27.3107 69.4817 26.6819Z" fill="white"/>
<path d="M74.9065 23.8672L73.5993 24.2715V25.3793H72.6377V26.4424H73.5993V29.6912C73.5993 30.4697 73.7496 31.0237 74.0651 31.368C74.3656 31.6974 74.8163 31.877 75.3572 31.877C75.8531 31.877 76.2137 31.7723 76.3789 31.7124L76.4541 31.6824L76.394 30.6194L76.2738 30.6644C76.1085 30.7093 75.9282 30.7392 75.6577 30.7392C75.1469 30.7392 74.9215 30.4099 74.9215 29.6463V26.4424H76.5292V25.3793H74.9215V23.8672H74.9065Z" fill="white"/>
<path d="M80.6169 25.2446C78.7538 25.2446 77.4617 26.622 77.4617 28.6132C77.4617 30.5296 78.7237 31.8771 80.5267 31.8771H80.5418C82.0593 31.8771 83.6969 30.8141 83.6969 28.4935C83.6969 27.5503 83.4113 26.7418 82.8559 26.143C82.2696 25.559 81.5033 25.2446 80.6169 25.2446ZM80.5718 26.2777C81.7737 26.2777 82.3145 27.4455 82.3145 28.5234C82.3145 29.8559 81.5787 30.8141 80.5418 30.8141H80.5267C79.52 30.8141 78.7838 29.8709 78.7838 28.5534C78.7989 27.4305 79.3398 26.2777 80.5718 26.2777Z" fill="white"/>
<path d="M88.5506 25.3045L88.4758 25.2895C88.3555 25.2596 88.2656 25.2446 88.1453 25.2446C87.4538 25.2446 86.823 25.6489 86.4773 26.3076L86.4323 25.3794H85.2456L85.2602 25.4842C85.2906 26.0082 85.3052 26.5921 85.3052 27.3856L85.2906 31.7124H86.6274V28.3288C86.6274 28.1491 86.6426 27.9695 86.6578 27.8198C86.8078 27.0113 87.3638 26.4873 88.0547 26.4873C88.1902 26.4873 88.2954 26.5023 88.4157 26.5023L88.5506 26.5172V25.3045Z" fill="white"/>
<path d="M92.338 25.2296C90.5649 25.2296 89.3333 26.6369 89.3333 28.6581C89.3333 30.6044 90.5649 31.862 92.4735 31.862C93.4798 31.862 94.1713 31.6374 94.5766 31.4578L94.6519 31.4279L94.3967 30.4398L94.2916 30.4847C93.9307 30.6344 93.45 30.7841 92.6236 30.7841C92.0524 30.7841 90.7156 30.5894 90.6251 28.8677L94.9223 28.8827L94.9375 28.7929C94.9673 28.6581 94.9825 28.4785 94.9825 28.2389C94.9825 26.8466 94.2916 25.2296 92.338 25.2296ZM92.2481 26.2327C92.6534 26.2327 92.9839 26.3525 93.2246 26.607C93.6001 26.9962 93.6754 27.5652 93.6754 27.8347H90.6403C90.7752 27.0711 91.2564 26.2327 92.2481 26.2327Z" fill="white"/>
</svg>
