<svg width="160" height="175" viewBox="0 0 160 175" fill="none" xmlns="http://www.w3.org/2000/svg">
<path d="M105.032 62.9671V153.908H81.7725V87.5001C81.7725 86.4427 81.3496 85.3852 80.7153 84.7507C80.0809 84.1162 79.0237 83.6933 77.9665 83.6933C75.852 83.6933 74.1604 85.3852 74.1604 87.7116V154.12H50.9014V63.1786L105.032 62.9671Z" fill="#543984" stroke="#102C43" stroke-width="0.3521" stroke-miterlimit="10"/>
<path d="M105.032 24.4755V65.7164C105.032 69.9462 101.648 73.3301 97.4195 73.3301H50.9014V24.4755H105.032Z" fill="#102C43" stroke="#102C43" stroke-width="0.3521" stroke-miterlimit="10"/>
<path d="M65.7025 24.4755H4.17169C2.48012 24.4755 1 25.956 1 27.6479V28.4939C1 34.6271 5.86326 39.7029 11.9952 39.7029H48.1525C49.8441 39.7029 51.1127 40.9719 51.1127 42.6638V68.2543C51.1127 71.0037 53.4386 73.3301 56.1874 73.3301H71.623C75.0061 73.3301 77.9664 70.3692 77.9664 66.9853V39.7029L65.7025 24.4755Z" fill="#EC6227" stroke="#102C43" stroke-width="0.3521" stroke-miterlimit="10"/>
<path d="M75.8523 47.3165H73.3149C73.3149 45.8361 74.3722 44.7786 75.8523 44.7786V47.3165Z" fill="#FFE8AC" stroke="#373535" stroke-width="0.3521" stroke-miterlimit="10"/>
<path d="M75.6406 50.7005H73.1033V53.2384H75.6406V50.7005Z" fill="#FFE8AC" stroke="#373535" stroke-width="0.3521" stroke-miterlimit="10"/>
<path d="M75.6406 56.8336H73.1033V59.3715H75.6406V56.8336Z" fill="#FFE8AC" stroke="#373535" stroke-width="0.3521" stroke-miterlimit="10"/>
<path d="M75.8523 65.5047C74.3722 65.5047 73.3149 64.4473 73.3149 62.9668H75.8523V65.5047Z" fill="#FFE8AC" stroke="#373535" stroke-width="0.3521" stroke-miterlimit="10"/>
<path d="M13.8982 39.7029H12.841C6.28615 39.7029 1 34.4156 1 27.8594C1 25.956 2.48012 24.4755 4.38314 24.4755H13.8982V39.7029Z" fill="white" stroke="#373535" stroke-width="0.3521" stroke-miterlimit="10"/>
<path d="M90.2304 24.4755H151.761C153.453 24.4755 154.933 25.956 154.933 27.6479V28.4939C154.933 34.6271 150.07 39.7029 143.938 39.7029H107.78C106.089 39.7029 104.82 40.9719 104.82 42.6638V68.2543C104.82 71.0037 102.494 73.3301 99.7455 73.3301H84.3099C80.9268 73.3301 77.9666 70.3692 77.9666 66.9853V39.7029L90.2304 24.4755Z" fill="#EC6227" stroke="#102C43" stroke-width="0.3521" stroke-miterlimit="10"/>
<path d="M142.246 39.7029H143.304C149.858 39.7029 155.145 34.4156 155.145 27.8594C155.145 25.956 153.664 24.4755 151.761 24.4755H142.246V39.7029Z" fill="white" stroke="#373535" stroke-width="0.3521" stroke-miterlimit="10"/>
<path d="M77.9665 22.7836C72.4689 22.7836 68.0286 18.3423 68.0286 12.8435V1H87.6931V13.055C87.6931 18.3423 83.2527 22.7836 77.9665 22.7836Z" fill="white" stroke="#373535" stroke-width="0.3521" stroke-miterlimit="10"/>
<path d="M87.6931 1V6.92176L79.2352 9.03668C78.3894 9.24817 77.3322 9.24817 76.4864 9.03668L68.0286 6.92176V1H87.6931Z" fill="#754897" stroke="#373535" stroke-width="0.3521" stroke-miterlimit="10"/>
<path d="M107.569 170.404H98.4767L93.1906 168.924C93.1906 169.347 92.9791 169.77 92.7677 169.981C92.5563 170.193 92.1334 170.404 91.7105 170.404H88.5388C87.4815 170.404 86.4243 169.559 86.4243 168.29V156.235C86.4243 160.253 87.9044 161.945 92.3448 162.156C92.7677 162.156 93.1906 162.156 93.6135 162.156C96.3623 162.156 100.168 161.522 100.168 158.772C100.803 158.984 107.569 170.404 107.569 170.404Z" fill="#C09ECB" stroke="#373535" stroke-width="0.3521" stroke-miterlimit="10"/>
<path d="M100.168 153.697V158.773C100.168 161.522 96.5737 162.156 93.6135 162.156C93.1906 162.156 92.7677 162.156 92.3448 162.156C88.1159 161.945 86.4243 160.253 86.4243 156.235V156.023C86.4243 153.697 86.4243 153.697 86.4243 153.697H100.168Z" fill="#543984" stroke="#373535" stroke-width="0.3521" stroke-miterlimit="10"/>
<path d="M68.6628 158.984C68.8743 159.407 68.8743 160.041 68.8743 160.464V158.984H68.6628Z" fill="#C09ECB" stroke="#373535" stroke-width="0.3521" stroke-miterlimit="10"/>
<path d="M47.73 170.404H56.8222L62.1083 168.924C62.1083 169.347 62.3198 169.77 62.5312 169.981C62.7427 170.193 63.1655 170.404 63.5884 170.404H66.7601C67.8174 170.404 68.8746 169.559 68.8746 168.29V156.235C68.8746 160.253 67.3945 161.945 62.9541 162.156C62.5312 162.156 62.1083 162.156 61.6854 162.156C58.9366 162.156 55.1306 161.522 55.1306 158.772C54.7077 158.984 47.73 170.404 47.73 170.404Z" fill="#C09ECB" stroke="#373535" stroke-width="0.3521" stroke-miterlimit="10"/>
<path d="M55.3418 153.697V158.773C55.3418 161.522 58.9364 162.156 61.8966 162.156C62.3195 162.156 62.7424 162.156 63.1653 162.156C67.3942 161.945 69.0858 160.253 69.0858 156.235V156.023C69.0858 153.697 69.0858 153.697 69.0858 153.697H55.3418Z" fill="#543984" stroke="#373535" stroke-width="0.3521" stroke-miterlimit="10"/>
<path d="M53.4388 171.885C35.8888 171.885 21.7219 157.715 21.7219 140.161V77.1369H53.4388V171.885Z" fill="#937DB8" stroke="#373535" stroke-width="0.3521" stroke-miterlimit="10"/>
<path d="M46.6726 27.4363C46.6726 31.4546 44.1353 34.8385 40.5407 35.896C39.6949 35.6845 38.8491 35.473 37.7919 35.473C36.9461 35.473 36.1003 35.6845 35.2545 36.1075C31.6599 35.05 28.9111 31.6661 28.9111 27.6478C28.9111 26.8018 29.1226 25.7444 29.334 24.8984C35.2545 24.2639 39.4834 21.0916 41.3865 19.3996C44.3467 20.4571 46.6726 23.6295 46.6726 27.4363Z" fill="#754897" stroke="#373535" stroke-width="0.3521" stroke-miterlimit="10"/>
<path d="M46.6726 27.4364C46.6726 31.4547 44.1353 34.8386 40.5407 35.896C39.6949 36.1075 38.6377 36.319 37.7919 36.319C36.9461 36.319 36.1003 36.1075 35.2545 35.896C31.6599 34.8386 28.9111 31.4547 28.9111 27.4364C28.9111 26.5904 29.1226 25.533 29.334 24.687C35.2545 24.0525 39.4834 20.8801 41.3865 19.1882C44.3467 20.4572 46.6726 23.6295 46.6726 27.4364Z" fill="white" stroke="#373535" stroke-width="0.3521" stroke-miterlimit="10"/>
<path d="M51.1129 29.9743C51.1129 32.7237 49.8442 36.7421 48.3641 37.165C43.7123 38.434 42.6551 36.7421 40.3291 35.8961C43.9237 34.6271 46.4611 31.4548 46.4611 27.4364C46.4611 23.8411 44.1352 20.6687 40.9635 19.1883C39.0605 20.8802 34.8315 24.0526 28.9111 24.687C28.6996 25.533 28.4882 26.379 28.4882 27.4364C28.4882 31.4548 31.237 34.8386 34.8315 35.8961C31.8713 36.9535 29.3339 39.0685 25.5279 35.8961C23.8363 34.4157 22.1448 32.7237 22.1448 29.3399C22.1448 21.9377 29.7568 14.9584 37.1575 14.9584C41.3864 14.9584 47.5183 15.8044 47.5183 21.5147C47.9412 27.4364 51.1129 26.5905 51.1129 29.9743Z" fill="#754897" stroke="#373535" stroke-width="0.3521" stroke-miterlimit="10"/>
<path d="M51.3241 83.9046H37.7915V43.7212C37.7915 73.1185 51.3241 83.9046 51.3241 83.9046Z" fill="#543984" stroke="#373535" stroke-width="0.3521" stroke-miterlimit="10"/>
<path d="M45.4037 87.2884L44.3465 86.4425C43.2893 85.5965 42.8664 84.1161 43.7121 83.0586L47.3067 78.6173L51.5356 83.4816L48.7868 87.0769C47.9411 87.9229 46.4609 88.1344 45.4037 87.2884Z" fill="white" stroke="#373535" stroke-width="0.3521" stroke-miterlimit="10"/>
<path d="M64.2224 69.5232C64.2224 76.0794 60.6278 83.9046 54.7073 83.9046H51.3242C51.3242 83.9046 37.7916 73.1185 37.7916 43.7212V83.9046H21.7217C15.3784 83.9046 13.4753 75.0219 13.4753 67.8312C13.4753 60.6405 20.4531 47.3166 20.4531 47.3166L25.7392 38.4339C25.9507 37.7995 26.585 37.165 27.2193 37.165H47.5182C48.1525 37.165 48.7868 37.588 48.9983 38.4339L56.1875 50.2774C56.6103 50.2774 64.2224 62.9669 64.2224 69.5232Z" fill="#F8C7CA" stroke="#373535" stroke-width="0.3521" stroke-miterlimit="10"/>
<path d="M44.1353 37.165C44.1353 40.7603 41.175 43.7212 37.5805 43.7212C33.9859 43.7212 31.0256 40.7603 31.0256 37.165H44.1353Z" fill="white" stroke="#373535" stroke-width="0.3521" stroke-miterlimit="10"/>
<path d="M25.1051 90.8838C23.202 90.8838 21.7219 89.4034 21.7219 87.5V83.6931H28.2768V87.5C28.2768 89.4034 26.7966 90.8838 25.1051 90.8838Z" fill="white" stroke="#373535" stroke-width="0.3521" stroke-miterlimit="10"/>
<path d="M117.929 18.3422V35.05C117.929 36.7419 116.661 38.0109 114.969 38.0109H98.6878C96.9962 38.0109 95.7275 36.7419 95.7275 35.05V14.1124H113.912C113.7 16.4388 115.603 18.3422 117.929 18.3422Z" fill="white" stroke="#373535" stroke-width="0.3521" stroke-miterlimit="10"/>
<path d="M121.524 86.0194H108.414H104.819H84.7321H83.0405L88.1152 174H105.665L105.031 98.0744C105.031 97.017 105.877 96.3825 106.722 96.3825C107.78 96.3825 108.414 97.2285 108.414 98.0744L107.78 174H125.33L130.404 86.0194H121.524Z" fill="#7D6049" stroke="#373535" stroke-width="0.3521" stroke-miterlimit="10"/>
<path d="M112.009 39.4913L106.723 47.3165L101.648 39.4913H112.009Z" fill="#FFE8AC" stroke="#373535" stroke-width="0.3521" stroke-miterlimit="10"/>
<path d="M128.713 56.1992L131.885 86.8654H84.5211C82.8296 86.8654 81.5609 85.385 81.7723 83.9046L86.2127 42.0292C86.4241 40.5488 87.4814 39.4913 88.9615 39.4913H101.648L106.934 47.528L112.221 39.4913H126.176C126.81 39.4913 127.445 39.7028 127.868 40.1258L157.681 67.8312C158.104 68.2542 158.316 68.6772 158.104 69.1002L157.681 76.5024L128.713 56.1992Z" fill="#102C43" stroke="#373535" stroke-width="0.3521" stroke-miterlimit="10"/>
<path d="M99.7451 14.1124C99.7451 16.6503 101.648 18.7652 103.974 18.7652H109.472C111.798 18.7652 113.701 16.6503 113.701 14.1124H99.7451Z" fill="#754897" stroke="#373535" stroke-width="0.3521" stroke-miterlimit="10"/>
<path d="M104.397 46.0476L102.917 45.2017C102.705 44.9902 102.494 44.9902 102.283 45.2017L99.5338 46.6821C99.1109 46.8936 98.4766 46.6821 98.4766 46.0476V39.9144C98.4766 39.4914 98.688 39.2799 99.1109 39.2799H101.225C101.437 39.2799 101.648 39.4914 101.86 39.4914L105.243 44.7787C105.666 45.6247 105.031 46.4706 104.397 46.0476Z" fill="#EC6227" stroke="#373535" stroke-width="0.3521" stroke-miterlimit="10"/>
<path d="M114.969 40.1258V46.2591C114.969 46.6821 114.335 47.105 113.912 46.8935L111.163 45.4131C110.952 45.2016 110.74 45.2016 110.529 45.4131L109.049 46.2591C108.414 46.6821 107.78 45.8361 108.203 45.2016L111.586 39.9143C111.797 39.7028 112.009 39.7028 112.22 39.7028H114.335C114.758 39.4914 114.969 39.7028 114.969 40.1258Z" fill="#EC6227" stroke="#373535" stroke-width="0.3521" stroke-miterlimit="10"/>
<path d="M99.745 174H87.9041C87.9041 170.616 90.6529 168.078 93.8245 168.078C96.9962 168.078 99.745 170.828 99.745 174Z" fill="#102C43" stroke="#373535" stroke-width="0.3521" stroke-miterlimit="10"/>
<path d="M125.33 174H110.106C110.106 169.77 113.489 166.386 117.718 166.386C121.736 166.386 125.33 169.77 125.33 174Z" fill="#543984" stroke="#373535" stroke-width="0.3521" stroke-miterlimit="10"/>
<path d="M105.243 22.9952H108.414" stroke="#373535" stroke-width="0.3521" stroke-miterlimit="10"/>
<path d="M112.855 28.0709H111.375C109.683 28.0709 108.415 26.802 108.415 25.11C108.415 23.4181 109.683 22.1491 111.375 22.1491H112.855C114.546 22.1491 115.815 23.4181 115.815 25.11C115.815 26.5905 114.546 28.0709 112.855 28.0709Z" fill="white" stroke="#373535" stroke-width="0.3521" stroke-miterlimit="10"/>
<path d="M102.071 28.0709H100.591C98.8995 28.0709 97.6309 26.8019 97.6309 25.11C97.6309 23.4181 98.8995 22.1491 100.591 22.1491H102.071C103.763 22.1491 105.031 23.4181 105.031 25.11C105.243 26.5904 103.763 28.0709 102.071 28.0709Z" fill="white" stroke="#373535" stroke-width="0.3521" stroke-miterlimit="10"/>
<path d="M117.929 14.1124V18.3422C115.603 18.3422 113.7 16.4388 113.7 14.1124H117.929Z" fill="#754897" stroke="#373535" stroke-width="0.3521" stroke-miterlimit="10"/>
<path d="M95.7275 18.3422C98.0534 18.3422 99.9565 16.4388 99.9565 14.1124H95.7275V18.3422Z" fill="#754897" stroke="#373535" stroke-width="0.3521" stroke-miterlimit="10"/>
<path d="M94.4588 39.4913H90.8643V86.8654H94.4588V39.4913Z" fill="#754897" stroke="#373535" stroke-width="0.3521" stroke-miterlimit="10"/>
<path d="M122.581 39.4913H118.987V86.8654H122.581V39.4913Z" fill="#754897" stroke="#373535" stroke-width="0.3521" stroke-miterlimit="10"/>
<path d="M159.373 100.19H120.255L124.696 54.5074C124.907 52.8154 126.387 51.335 128.079 51.335H151.549C153.241 51.335 154.721 52.6039 154.932 54.5074L159.373 100.19Z" fill="white" stroke="#373535" stroke-width="0.3521" stroke-miterlimit="10"/>
<path d="M159.373 100.189H120.255L124.696 58.1026C132.096 61.275 149.646 60.429 154.932 57.2567L159.373 100.189Z" fill="#F8C7CA" stroke="#373535" stroke-width="0.3521" stroke-miterlimit="10"/>
<path d="M132.308 100.19H120.044L124.484 54.5074C124.696 52.8154 126.176 51.335 127.867 51.335H133.999L136.959 94.9022C137.382 97.8631 135.268 100.19 132.308 100.19Z" fill="#937DB8" stroke="#373535" stroke-width="0.3521" stroke-miterlimit="10"/>
<path d="M147.109 100.19H159.372L154.932 54.5074C154.721 52.8154 153.241 51.335 151.549 51.335H145.417L142.245 94.9022C142.245 97.8631 144.36 100.19 147.109 100.19Z" fill="#937DB8" stroke="#373535" stroke-width="0.3521" stroke-miterlimit="10"/>
<path d="M155.355 173.789H124.273L120.255 100.19H159.373L155.355 173.789Z" fill="#102C43" stroke="#373535" stroke-width="0.3521" stroke-miterlimit="10"/>
<path d="M150.492 39.7029C151.761 51.7579 147.109 56.1993 142.88 51.758C146.052 50.2775 148.166 44.1443 147.955 40.3374C147.743 36.1076 144.149 32.7237 140.131 32.5122C135.268 32.0892 131.039 36.1076 131.039 40.9719C131.039 44.5672 133.999 50.489 136.959 51.758C131.039 58.3142 127.867 47.3166 128.713 39.7029C129.136 35.8961 129.982 31.4548 133.365 29.3399C136.114 27.6479 139.074 29.7628 139.074 29.7628C139.074 29.7628 140.554 28.0709 143.303 28.2824C147.32 28.2824 150.069 35.4731 150.492 39.7029Z" fill="#754897" stroke="#373535" stroke-width="0.3521" stroke-miterlimit="10"/>
<path d="M148.589 42.2409C148.589 46.4707 146.263 49.8545 143.091 51.5465C142.034 51.9695 140.765 52.1809 139.497 52.1809C138.228 52.1809 136.959 51.9695 135.902 51.5465C132.73 50.066 130.405 46.4707 130.405 42.2409C130.405 36.7421 134.422 32.3008 139.497 32.3008C144.571 32.3008 148.589 36.7421 148.589 42.2409Z" fill="white" stroke="#373535" stroke-width="0.3521" stroke-miterlimit="10"/>
<path d="M149.435 72.4841L149.646 71.2151C149.858 69.7347 150.915 68.6772 152.184 68.6772H157.047L157.681 76.2909H151.972C150.492 76.5024 149.224 74.176 149.435 72.4841Z" fill="white" stroke="#373535" stroke-width="0.3521" stroke-miterlimit="10"/>
</svg>
