<svg width="134" height="40" viewBox="0 0 134 40" fill="none" xmlns="http://www.w3.org/2000/svg">
<path fill-rule="evenodd" clip-rule="evenodd" d="M128.155 39.2315H4.9309C2.21328 39.2315 0 37.0205 0 34.3276V4.90394C0 2.20127 2.21328 0 4.9309 0H128.155C130.87 0 133.085 2.20127 133.085 4.90394V34.3276C133.085 37.0205 130.87 39.2315 128.155 39.2315Z" fill="black"/>
<path d="M70.1099 12.9777C69.2212 12.9777 68.472 12.6671 67.8795 12.0557C67.2919 11.4613 66.9638 10.6419 66.9785 9.80546C66.9785 8.91272 67.2821 8.15696 67.8795 7.55772C68.4695 6.94626 69.2187 6.63563 70.1075 6.63563C70.9864 6.63563 71.7356 6.94626 72.3379 7.55772C72.9353 8.17652 73.2388 8.93229 73.2388 9.80546C73.229 10.7006 72.9255 11.4564 72.3379 12.0532C71.7478 12.6696 70.9986 12.9777 70.1099 12.9777ZM43.6657 12.9777C42.7965 12.9777 42.0424 12.672 41.4255 12.0679C40.8134 11.4662 40.5024 10.7055 40.5024 9.80791C40.5024 8.91028 40.8134 8.14962 41.4255 7.54794C42.0302 6.94381 42.7843 6.63808 43.6657 6.63808C44.0966 6.63808 44.5152 6.72368 44.9167 6.89734C45.3109 7.0661 45.6317 7.29601 45.8691 7.57729L45.9279 7.64822L45.2644 8.29881L45.1959 8.2181C44.8213 7.77296 44.3194 7.55527 43.6559 7.55527C43.0634 7.55527 42.5468 7.76562 42.1208 8.18141C41.6923 8.59966 41.4744 9.14753 41.4744 9.81035C41.4744 10.4732 41.6923 11.0211 42.1208 11.4393C42.5468 11.8551 43.0634 12.0654 43.6559 12.0654C44.2875 12.0654 44.8188 11.8551 45.2326 11.4393C45.4774 11.1947 45.6292 10.8523 45.6831 10.4194H43.5555V9.50462H46.5963L46.6085 9.58778C46.6306 9.74187 46.6526 9.90085 46.6526 10.0476C46.6526 10.8914 46.398 11.5738 45.8936 12.0777C45.3207 12.6745 44.5715 12.9777 43.6657 12.9777ZM78.8259 12.8481H77.8882L75.0163 8.25724L75.0408 9.08393V12.8457H74.1031V6.76771H75.173L75.2024 6.81418L77.9029 11.1385L77.8784 10.3142V6.76771H78.8259V12.8481ZM63.0637 12.8481H62.1137V7.68246H60.466V6.76771H64.7089V7.68246H63.0612V12.8481H63.0637ZM59.6923 12.8481H58.7448V6.76771H59.6923V12.8481ZM54.3672 12.8481H53.4197V7.68246H51.772V6.76771H56.015V7.68246H54.3672V12.8481ZM51.1722 12.8383H47.5389V6.76771H51.1722V7.68246H48.4888V9.35053H50.9102V10.2555H48.4888V11.9236H51.1722V12.8383ZM68.5748 11.4271C68.9984 11.8502 69.5125 12.063 70.1099 12.063C70.7244 12.063 71.2263 11.8551 71.645 11.4271C72.0612 11.0113 72.2718 10.4658 72.2718 9.80791C72.2718 9.14997 72.0612 8.6021 71.6474 8.18875C71.2239 7.76562 70.7073 7.55283 70.1123 7.55283C69.4978 7.55283 68.9959 7.76073 68.5797 8.18875C68.1635 8.60455 67.9529 9.14997 67.9529 9.80791C67.9529 10.4658 68.161 11.0137 68.5748 11.4271Z" fill="white"/>
<path fill-rule="evenodd" clip-rule="evenodd" d="M66.8904 21.3377C64.5768 21.3377 62.7013 23.0913 62.7013 25.5103C62.7013 27.9072 64.589 29.6829 66.8904 29.6829C69.2041 29.6829 71.0795 27.917 71.0795 25.5103C71.0795 23.0913 69.2041 21.3377 66.8904 21.3377ZM66.8904 28.0295C65.6246 28.0295 64.5351 26.9827 64.5351 25.5005C64.5351 23.9963 65.6271 22.9715 66.8904 22.9715C68.1562 22.9715 69.2457 23.9963 69.2457 25.5005C69.2481 26.9925 68.1562 28.0295 66.8904 28.0295ZM57.7509 21.3377C55.4372 21.3377 53.5618 23.0913 53.5618 25.5103C53.5618 27.9072 55.4494 29.6829 57.7509 29.6829C60.0645 29.6829 61.9399 27.917 61.9399 25.5103C61.9399 23.0913 60.0621 21.3377 57.7509 21.3377ZM57.7509 28.0295C56.4851 28.0295 55.3956 26.9827 55.3956 25.5005C55.3956 23.9963 56.4875 22.9715 57.7509 22.9715C59.0166 22.9715 60.1061 23.9963 60.1061 25.5005C60.1061 26.9925 59.0166 28.0295 57.7509 28.0295ZM46.8754 22.612V24.3779H51.1184C50.9886 25.3684 50.6605 26.0997 50.1586 26.6011C49.5368 27.2224 48.577 27.8974 46.8852 27.8974C44.2778 27.8974 42.2383 25.794 42.2383 23.1892C42.2383 20.5843 44.2778 18.4809 46.8852 18.4809C48.293 18.4809 49.3189 19.0361 50.0803 19.7454L51.3338 18.4931C50.2761 17.4805 48.8684 16.7052 46.895 16.7052C43.318 16.7052 40.3164 19.6158 40.3164 23.1794C40.3164 26.7528 43.3156 29.6536 46.895 29.6536C48.8267 29.6536 50.2762 29.0225 51.422 27.8339C52.5898 26.6672 52.9595 25.0211 52.9595 23.693C52.9595 23.2797 52.9277 22.9079 52.8616 22.5924H46.873C46.8754 22.5899 46.8754 22.612 46.8754 22.612ZM91.3589 23.9865C91.0088 23.0498 89.9511 21.3279 87.7819 21.3279C85.6323 21.3279 83.845 23.018 83.845 25.5005C83.845 27.8436 85.6127 29.6731 87.99 29.6731C89.8997 29.6731 91.0112 28.5065 91.469 27.8216L90.0515 26.8726C89.5814 27.5697 88.9277 28.0271 87.9998 28.0271C87.0621 28.0271 86.4059 27.6015 85.9701 26.7626L91.5547 24.4512C91.5547 24.4537 91.3589 23.9865 91.3589 23.9865ZM85.6641 25.3807C85.62 23.7688 86.9176 22.9495 87.8455 22.9495C88.5776 22.9495 89.1872 23.309 89.3953 23.8324L85.6641 25.3807ZM81.1274 29.4237H82.9611V17.165H81.1274V29.4237ZM78.1159 22.2646H78.0498C77.6361 21.773 76.8501 21.3279 75.8463 21.3279C73.7628 21.3279 71.8433 23.1598 71.8433 25.5127C71.8433 27.8559 73.753 29.6658 75.8463 29.6658C76.8379 29.6658 77.6361 29.2182 78.0498 28.7168H78.1159V29.316C78.1159 30.9083 77.2639 31.7668 75.8904 31.7668C74.7666 31.7668 74.0689 30.9597 73.7849 30.2846L72.191 30.9499C72.6488 32.0505 73.8706 33.4129 75.888 33.4129C78.0376 33.4129 79.8591 32.1483 79.8591 29.0641V21.5774H78.1257V22.2646C78.1282 22.2646 78.1159 22.2646 78.1159 22.2646ZM76.0104 28.0295C74.7446 28.0295 73.6869 26.9729 73.6869 25.5127C73.6869 24.0403 74.7446 22.9739 76.0104 22.9739C77.2639 22.9739 78.2359 24.0526 78.2359 25.5127C78.2481 26.9729 77.2664 28.0295 76.0104 28.0295ZM99.9451 17.165H95.5602V29.4237H97.394V24.7814H99.9475C101.977 24.7814 103.973 23.3115 103.973 20.9781C103.973 18.6448 101.985 17.165 99.9451 17.165ZM99.999 23.0693H97.3915V18.8625H99.999C101.372 18.8625 102.149 19.9949 102.149 20.9659C102.149 21.9271 101.363 23.0693 99.999 23.0693ZM111.322 21.3156C109.991 21.3156 108.617 21.9051 108.049 23.1892L109.675 23.8642C110.025 23.1892 110.666 22.9593 111.344 22.9593C112.294 22.9593 113.254 23.5267 113.276 24.5393V24.6689C112.948 24.483 112.228 24.1993 111.366 24.1993C109.611 24.1993 107.831 25.1581 107.831 26.9558C107.831 28.6019 109.271 29.6585 110.874 29.6585C112.106 29.6585 112.784 29.1033 113.208 28.46H113.274V29.409H115.041V24.7129C115.041 22.5263 113.416 21.3156 111.322 21.3156ZM111.092 28.0295C110.492 28.0295 109.653 27.736 109.653 26.9827C109.653 26.0337 110.701 25.6742 111.594 25.6742C112.402 25.6742 112.784 25.8478 113.264 26.0875C113.132 27.1882 112.201 28.0197 111.092 28.0295ZM121.49 21.5774L119.385 26.8946H119.319L117.137 21.5774H115.164L118.437 29.0103L116.572 33.1414H118.481L123.517 21.5774H121.49ZM104.984 29.4237H106.818V17.165H104.984V29.4237Z" fill="white"/>
<path fill-rule="evenodd" clip-rule="evenodd" d="M10.2437 7.38894C9.95969 7.69468 9.79565 8.16184 9.79565 8.7733V30.4607C9.79565 31.0722 9.95969 31.5393 10.2535 31.8328L10.3294 31.8989L22.4926 19.7479V19.4764L10.3196 7.32291L10.2437 7.38894Z" fill="url(#paint0_linear)"/>
<path fill-rule="evenodd" clip-rule="evenodd" d="M26.5398 23.8104L22.4829 19.7576V19.4739L26.5398 15.4211L26.6279 15.475L31.4266 18.1996C32.8001 18.9725 32.8001 20.2493 31.4266 21.0319L26.6279 23.7566L26.5398 23.8104Z" fill="url(#paint1_linear)"/>
<path fill-rule="evenodd" clip-rule="evenodd" d="M26.6278 23.7566L22.4828 19.6158L10.2437 31.8426C10.6917 32.322 11.4433 32.3758 12.2831 31.9087L26.6278 23.7566Z" fill="url(#paint2_linear)"/>
<path fill-rule="evenodd" clip-rule="evenodd" d="M26.6278 15.4749L12.2831 7.33514C11.4433 6.85575 10.6892 6.92179 10.2437 7.40117L22.4828 19.6158L26.6278 15.4749Z" fill="url(#paint3_linear)"/>
<path opacity="0.2" fill-rule="evenodd" clip-rule="evenodd" d="M26.5396 23.6686L12.2929 31.7546C11.4972 32.2119 10.7872 32.1801 10.3293 31.7643L10.2534 31.8402L10.3293 31.9062C10.7872 32.3196 11.4972 32.3538 12.2929 31.8964L26.6375 23.7566L26.5396 23.6686Z" fill="black"/>
<path opacity="0.12" fill-rule="evenodd" clip-rule="evenodd" d="M31.4264 20.8901L26.5273 23.6686L26.6155 23.7566L31.4142 21.0319C32.1022 20.6406 32.44 20.127 32.44 19.6158C32.3984 20.0854 32.0483 20.5305 31.4264 20.8901Z" fill="black"/>
<path opacity="0.25" fill-rule="evenodd" clip-rule="evenodd" d="M12.2834 7.47701L31.4268 18.3415C32.0486 18.6913 32.3987 19.1486 32.4526 19.6158C32.4526 19.1046 32.1147 18.591 31.4268 18.1996L12.2834 7.33515C10.9099 6.55003 9.7959 7.20552 9.7959 8.77331V8.91517C9.7959 7.34493 10.9099 6.70167 12.2834 7.47701Z" fill="white"/>
<defs>
<linearGradient id="paint0_linear" x1="21.4016" y1="8.53931" x2="1.9208" y2="13.7352" gradientUnits="userSpaceOnUse">
<stop stop-color="#00A0FF"/>
<stop offset="0.00657" stop-color="#00A1FF"/>
<stop offset="0.2601" stop-color="#00BEFF"/>
<stop offset="0.5122" stop-color="#00D2FF"/>
<stop offset="0.7604" stop-color="#00DFFF"/>
<stop offset="1" stop-color="#00E3FF"/>
</linearGradient>
<linearGradient id="paint1_linear" x1="33.2178" y1="19.6158" x2="9.46191" y2="19.6158" gradientUnits="userSpaceOnUse">
<stop stop-color="#FFE000"/>
<stop offset="0.4087" stop-color="#FFBD00"/>
<stop offset="0.7754" stop-color="#FFA500"/>
<stop offset="1" stop-color="#FF9C00"/>
</linearGradient>
<linearGradient id="paint2_linear" x1="24.3739" y1="21.869" x2="8.75594" y2="48.1817" gradientUnits="userSpaceOnUse">
<stop stop-color="#FF3A44"/>
<stop offset="1" stop-color="#C31162"/>
</linearGradient>
<linearGradient id="paint3_linear" x1="7.16171" y1="0.175368" x2="14.1295" y2="11.927" gradientUnits="userSpaceOnUse">
<stop stop-color="#32A071"/>
<stop offset="0.0685" stop-color="#2DA771"/>
<stop offset="0.4762" stop-color="#15CF74"/>
<stop offset="0.8009" stop-color="#06E775"/>
<stop offset="1" stop-color="#00F076"/>
</linearGradient>
</defs>
</svg>
