<svg width="1440" height="584" viewBox="0 0 1440 584" fill="none" xmlns="http://www.w3.org/2000/svg">
<path d="M566.5 180C494 165.611 461.5 115.818 381.5 126C271.5 140 262.5 251.279 161.5 229C60.5 206.721 5.11057e-05 260.5 2.24955e-05 308.5L0 583.5H1440V0C1360 16.5 1376.5 103 1287.5 103C1216.11 103 1156 52.9167 1086 72.5C1016 92.0833 1009 166 943.5 140C863.315 108.171 782 100.5 718.5 140C646.014 185.09 639 194.389 566.5 180Z" fill="url(#paint0_linear)"/>
<defs>
<linearGradient id="paint0_linear" x1="672" y1="18.5" x2="720" y2="512.5" gradientUnits="userSpaceOnUse">
<stop stop-color="#03B7CE" stop-opacity="0.79"/>
<stop offset="0.705524" stop-color="#72DDEB" stop-opacity="0.14"/>
<stop offset="1" stop-color="white" stop-opacity="0"/>
</linearGradient>
</defs>
</svg>
